<svg xmlns="http://www.w3.org/2000/svg" width="25.937" height="19.87" viewBox="0 0 25.937 19.87">
  <defs>
    <style>
      .cls-1 {
        fill: #373737;
        fill-rule: evenodd;
      }
    </style>
  </defs>
  <path id="checked.svg" class="cls-1" d="M835.438,5111.21l-2.277-2.28a1.613,1.613,0,0,0-2.276,0l-10.982,11-4.922-4.94a1.614,1.614,0,0,0-2.277,0l-2.277,2.28a1.542,1.542,0,0,0-.469,1.14,1.558,1.558,0,0,0,.469,1.14l6.06,6.06,2.277,2.27a1.614,1.614,0,0,0,2.277,0l2.277-2.27,12.12-12.12a1.578,1.578,0,0,0,.469-1.14,1.546,1.546,0,0,0-.469-1.14h0Z" transform="translate(-809.969 -5108.47)"/>
</svg>
