<svg xmlns="http://www.w3.org/2000/svg" width="19.875" height="19.9" viewBox="0 0 19.875 19.9">
  <defs>
    <style>
      .cls-1 {
        fill: #373737;
        fill-rule: evenodd;
      }
    </style>
  </defs>
  <path id="close.svg" class="cls-1" d="M876.913,5135.31l-4.922-4.92,4.922-4.92a1.545,1.545,0,0,0,.468-1.14,1.577,1.577,0,0,0-.468-1.14l-2.277-2.27a1.614,1.614,0,0,0-2.277,0l-4.922,4.92-4.922-4.92a1.613,1.613,0,0,0-2.276,0l-2.277,2.27a1.574,1.574,0,0,0-.469,1.14,1.542,1.542,0,0,0,.469,1.14l4.922,4.92-4.922,4.92a1.574,1.574,0,0,0-.469,1.14,1.542,1.542,0,0,0,.469,1.14l2.277,2.28a1.613,1.613,0,0,0,2.276,0l4.922-4.92,4.922,4.92a1.614,1.614,0,0,0,2.277,0l2.277-2.28a1.545,1.545,0,0,0,.468-1.14,1.577,1.577,0,0,0-.468-1.14h0Z" transform="translate(-857.5 -5120.44)"/>
</svg>
