<svg xmlns="http://www.w3.org/2000/svg" width="20.563" height="20.56" viewBox="0 0 20.563 20.56">
  <defs>
    <style>
      .cls-1 {
        fill: #ff4343;
        fill-rule: evenodd;
      }
    </style>
  </defs>
  <path id="important.svg" class="cls-1" d="M505.385,6510.36a10.362,10.362,0,0,0,0,10.33,10.2,10.2,0,0,0,3.743,3.74,10.348,10.348,0,0,0,10.326,0,10.206,10.206,0,0,0,3.744-3.74,10.362,10.362,0,0,0,0-10.33,10.282,10.282,0,0,0-3.744-3.74,10.348,10.348,0,0,0-10.326,0A10.279,10.279,0,0,0,505.385,6510.36Zm10.5,11.9a0.4,0.4,0,0,1-.295.12h-2.571a0.416,0.416,0,0,1-.308-0.13,0.424,0.424,0,0,1-.134-0.31v-2.54a0.424,0.424,0,0,1,.134-0.31,0.416,0.416,0,0,1,.308-0.13h2.571a0.4,0.4,0,0,1,.295.12,0.455,0.455,0,0,1,.121.32v2.54A0.455,0.455,0,0,1,515.885,6522.26Zm-0.047-4.69a0.476,0.476,0,0,1-.315.1h-2.477a0.5,0.5,0,0,1-.322-0.1,0.3,0.3,0,0,1-.134-0.24l-0.227-8.31a0.254,0.254,0,0,1,.134-0.24,0.507,0.507,0,0,1,.321-0.11h2.947a0.509,0.509,0,0,1,.321.11,0.255,0.255,0,0,1,.134.24l-0.241,8.31A0.355,0.355,0,0,1,515.838,6517.57Z" transform="translate(-504 -6505.25)"/>
</svg>
