<svg id="logo.svg" xmlns="http://www.w3.org/2000/svg" width="355" height="57.375" viewBox="0 0 355 57.375">
  <defs>
    <style>
      .cls-1 {
        fill: #ffb900;
      }

      .cls-1, .cls-2 {
        fill-rule: evenodd;
      }

      .cls-2 {
        fill: #d13438;
      }
    </style>
  </defs>
  <path id="SCHE" class="cls-1" d="M617.423,122.663a38.36,38.36,0,0,0,8.312,4.362,29.353,29.353,0,0,0,10.782,1.811c5.843,0,11.522-.906,16.213-5.6,3.951-3.95,5.185-8.806,5.185-13.827,0-3.786-.741-6.831-3.539-9.794-2.88-3.127-6.5-4.362-9.958-5.432l-4.362-1.317c-3.375-.988-4.362-1.975-4.774-2.469a3.673,3.673,0,0,1-.741-2.469,4.063,4.063,0,0,1,1.4-2.963,6.835,6.835,0,0,1,4.691-1.646c1.893,0,5.1.329,9.382,3.7l5.679-11.111a38.555,38.555,0,0,0-16.954-4.444c-6.667,0-11.276,2.387-14.074,5.185-2.387,2.387-5.02,6.5-5.02,13.251,0,2.8.329,6.666,3.127,9.712,2.222,2.469,5.6,3.7,7.9,4.444l3.7,1.153c3.539,1.07,5.679,1.646,7.078,2.88a4.29,4.29,0,0,1,1.563,3.292,4.908,4.908,0,0,1-1.4,3.457c-0.9.988-2.633,1.893-5.514,1.893-4.938,0-9.547-2.716-12.592-5.6ZM706.5,109.247c-5.02,5.515-10.287,5.762-12.427,5.762a15.332,15.332,0,0,1-10.206-3.786,15.147,15.147,0,0,1-4.444-10.7A15.329,15.329,0,0,1,684.2,89.248a13.9,13.9,0,0,1,9.876-3.621A15.284,15.284,0,0,1,706.5,91.635V74.6a34.023,34.023,0,0,0-12.839-2.8,28.8,28.8,0,0,0-29.052,28.806,28.8,28.8,0,0,0,8.312,20,29.858,29.858,0,0,0,21.234,8.231c3.539,0,6.667-.659,12.345-2.717V109.247Zm23.1-36.542H715.366v54.9H729.6V105.379h20.575V127.6H764.5v-54.9H750.179V93.2H729.6V72.705Zm77.311,0H775.723v54.9h31.192V115.5H789.961v-9.464H806.01V93.94H789.961V84.8h16.954v-12.1Z" transform="translate(-451.906 -71.469)"/>
  <path id="PRO" class="cls-2" d="M475.1,109.412c4.279,0,9.382-.576,13.662-4.773s4.856-9.3,4.856-13.662c0-4.609-.823-9.218-5.1-13.333-4.2-4.033-9.136-4.938-13.909-4.938H451.892v54.9H466.13V109.412H475.1ZM466.13,84.228h4.856c1.81,0,4.444.247,6.09,1.975a6.665,6.665,0,0,1,1.646,4.938c0,1.317-.082,3.539-1.811,5.02-1.728,1.564-4.526,1.728-6.008,1.728H466.13V84.228Zm35.145-11.522v54.9h14.238V106.532L529.175,127.6h17.7l-17.2-22.469a15.377,15.377,0,0,0,7.572-3.785,15.843,15.843,0,0,0,4.362-11.44,18.068,18.068,0,0,0-4.692-12.345c-4.032-4.2-9.3-4.856-13.415-4.856H501.275Zm14.238,11.029h2.716c3.127,0,5.514.823,6.831,2.14a6.475,6.475,0,0,1,1.893,4.609,6.835,6.835,0,0,1-1.811,4.609c-1.728,1.646-4.773,2.222-6.913,2.222h-2.716V83.734Zm95.444,16.46a28.4,28.4,0,0,0-8.641-20.575c-5.6-5.349-13.5-8.148-21.646-8.148s-16.048,2.8-21.645,8.148a28.716,28.716,0,0,0,0,41.068c5.6,5.35,13.5,8.149,21.645,8.149s16.049-2.8,21.646-8.149A28.484,28.484,0,0,0,610.957,100.194ZM580.67,85.3A16.435,16.435,0,0,1,591.7,89.66a14.815,14.815,0,0,1,4.444,10.534,14.91,14.91,0,0,1-15.473,14.815,15.574,15.574,0,0,1-11.11-4.362,13.952,13.952,0,0,1-4.362-10.206A15.048,15.048,0,0,1,569.56,89.66,15.81,15.81,0,0,1,580.67,85.3Z" transform="translate(-451.906 -71.469)"/>
</svg>
