<svg xmlns="http://www.w3.org/2000/svg" width="20.78" height="20.81" viewBox="0 0 20.78 20.81">
  <defs>
    <style>
      .cls-1 {
        fill: #fff;
        fill-rule: evenodd;
      }
    </style>
  </defs>
  <path id="phone.svg" class="cls-1" d="M1247.18,6813.06a2.531,2.531,0,0,0-1.12-.79c-0.19-.11-0.46-0.25-0.8-0.44s-0.66-.36-0.94-0.52-0.54-.31-0.79-0.46c-0.04-.02-0.16-0.11-0.37-0.25a3.35,3.35,0,0,0-.52-0.32,0.924,0.924,0,0,0-.42-0.1,1.208,1.208,0,0,0-.74.42,6.352,6.352,0,0,0-.81.91,8.868,8.868,0,0,1-.79.92,0.749,0.749,0,0,1-1.01.34,2.629,2.629,0,0,1-.3-0.12,3.875,3.875,0,0,1-.35-0.21c-0.17-.1-0.27-0.16-0.29-0.17a14.65,14.65,0,0,1-6.04-6.04c-0.01-.02-0.06-0.11-0.17-0.28s-0.17-.28-0.2-0.35a2.065,2.065,0,0,1-.13-0.31,0.931,0.931,0,0,1-.07-0.33,1.157,1.157,0,0,1,.42-0.68,10.04,10.04,0,0,1,.91-0.78,7.953,7.953,0,0,0,.92-0.81,1.233,1.233,0,0,0,.42-0.74,0.924,0.924,0,0,0-.1-0.42,5.313,5.313,0,0,0-.32-0.53c-0.14-.2-0.23-0.32-0.26-0.37-0.15-.24-0.3-0.5-0.46-0.78s-0.33-.6-0.51-0.94-0.34-.61-0.45-0.8a2.465,2.465,0,0,0-.78-1.12,0.8,0.8,0,0,0-.31-0.05,4.857,4.857,0,0,0-1.04.15,5.618,5.618,0,0,0-1.01.31,4,4,0,0,0-1.57,1.8,5.757,5.757,0,0,0-.75,2.75,6.527,6.527,0,0,0,.05.78,6.663,6.663,0,0,0,.19.85c0.08,0.31.16,0.54,0.21,0.7s0.16,0.42.3,0.82,0.24,0.63.27,0.72a13.12,13.12,0,0,0,1.22,2.58,22.836,22.836,0,0,0,3.19,3.9,22.369,22.369,0,0,0,3.9,3.19,13.826,13.826,0,0,0,2.59,1.23c0.09,0.03.33,0.12,0.72,0.26s0.67,0.25.82,0.31,0.39,0.12.7,0.21a6.939,6.939,0,0,0,.84.19,6.837,6.837,0,0,0,.79.05,5.626,5.626,0,0,0,2.74-.76,3.98,3.98,0,0,0,1.81-1.56,7.369,7.369,0,0,0,.31-1.01,5.44,5.44,0,0,0,.14-1.04,0.8,0.8,0,0,0-.04-0.31h0Z" transform="translate(-1226.44 -6796.94)"/>
</svg>
