<svg xmlns="http://www.w3.org/2000/svg" width="24" height="8.25" viewBox="0 0 24 8.25">
  <defs>
    <style>
      .cls-1 {
        fill: #fff;
        fill-rule: evenodd;
      }
    </style>
  </defs>
  <path id="active-x.svg" class="cls-1" d="M20.333,16.249l3.408-3.308a0.766,0.766,0,0,0,0-1.157L20.333,8.476a1.1,1.1,0,0,0-.624-0.231,0.721,0.721,0,0,0-.6.231,0.792,0.792,0,0,0-.335.5v2.256H5.273V8.979a0.781,0.781,0,0,0-.373-0.5,0.83,0.83,0,0,0-.6-0.231,0.829,0.829,0,0,0-.6.231L0.269,11.784a0.766,0.766,0,0,0,0,1.157L3.7,16.249a0.7,0.7,0,0,0,.6.255,0.922,0.922,0,0,0,.6-0.255,0.778,0.778,0,0,0,.373-0.5V13.492h13.5v2.256a0.683,0.683,0,0,0,.335.5,0.841,0.841,0,0,0,.6.255,0.87,0.87,0,0,0,.624-0.255h0Z" transform="translate(0 -8.25)"/>
</svg>
