<svg xmlns="http://www.w3.org/2000/svg" width="32" height="11" viewBox="0 0 32 11">
  <defs>
    <style>
      .cls-1 {
        fill: #fff;
        fill-rule: evenodd;
      }
    </style>
  </defs>
  <path id="active-x.svg" class="cls-1" d="M27.11,21.665l4.544-4.411a1.021,1.021,0,0,0,0-1.542L27.11,11.3a1.46,1.46,0,0,0-.832-0.309,0.961,0.961,0,0,0-.8.309,1.056,1.056,0,0,0-.447.671V14.98h-18V11.972a1.041,1.041,0,0,0-.5-0.671,1.107,1.107,0,0,0-.8-0.309,1.106,1.106,0,0,0-.8.309L0.358,15.712a1.021,1.021,0,0,0,0,1.542l4.576,4.411a0.929,0.929,0,0,0,.8.339,1.23,1.23,0,0,0,.8-0.339A1.037,1.037,0,0,0,7.031,21V17.989h18V21a0.911,0.911,0,0,0,.447.668,1.122,1.122,0,0,0,.8.339,1.16,1.16,0,0,0,.832-0.339h0Z" transform="translate(0 -11)"/>
</svg>
