<svg xmlns="http://www.w3.org/2000/svg" width="8.25" height="24" viewBox="0 0 8.25 24">
  <defs>
    <style>
      .cls-1 {
        fill: #fff;
        fill-rule: evenodd;
      }
    </style>
  </defs>
  <path id="active-y.svg" class="cls-1" d="M16.249,3.667L12.941,0.259a0.766,0.766,0,0,0-1.157,0L8.476,3.667a1.1,1.1,0,0,0-.231.624,0.721,0.721,0,0,0,.231.6,0.792,0.792,0,0,0,.5.335h2.256v13.5H8.979a0.781,0.781,0,0,0-.5.373,0.894,0.894,0,0,0,0,1.2l3.308,3.432a0.766,0.766,0,0,0,1.157,0L16.249,20.3a0.7,0.7,0,0,0,.255-0.6,0.922,0.922,0,0,0-.255-0.6,0.778,0.778,0,0,0-.5-0.373H13.492V5.227h2.256a0.683,0.683,0,0,0,.5-0.335,0.841,0.841,0,0,0,.255-0.6,0.87,0.87,0,0,0-.255-0.624h0Z" transform="translate(-8.25)"/>
</svg>
