<svg xmlns="http://www.w3.org/2000/svg" width="11" height="32" viewBox="0 0 11 32">
  <defs>
    <style>
      .cls-1 {
        fill: #fff;
        fill-rule: evenodd;
      }
    </style>
  </defs>
  <path id="active-y.svg" class="cls-1" d="M21.665,4.89L17.254,0.346a1.021,1.021,0,0,0-1.542,0L11.3,4.89a1.46,1.46,0,0,0-.309.832,0.961,0.961,0,0,0,.309.8,1.056,1.056,0,0,0,.671.447H14.98v18H11.972a1.041,1.041,0,0,0-.671.5,1.192,1.192,0,0,0,0,1.6l4.411,4.576a1.021,1.021,0,0,0,1.542,0l4.411-4.576a0.929,0.929,0,0,0,.339-0.8,1.23,1.23,0,0,0-.339-0.8,1.037,1.037,0,0,0-.668-0.5H17.989v-18H21a0.911,0.911,0,0,0,.668-0.447A1.122,1.122,0,0,0,22,5.722a1.16,1.16,0,0,0-.339-0.832h0Z" transform="translate(-11)"/>
</svg>
