<svg xmlns="http://www.w3.org/2000/svg" width="42.844" height="42.844" viewBox="0 0 42.844 42.844">
  <defs>
    <style>
      .cls-1 {
        fill: #006464;
        fill-rule: evenodd;
        opacity: 0.5;
      }
    </style>
  </defs>
  <path id="add-new-img.svg" class="cls-1" d="M664.4,659.184a1.713,1.713,0,0,1-1.255.53H656v7.143a1.81,1.81,0,0,1-1.786,1.786h-3.571a1.81,1.81,0,0,1-1.786-1.786v-7.143h-7.143a1.81,1.81,0,0,1-1.785-1.785v-3.572a1.812,1.812,0,0,1,1.785-1.786h7.143v-7.142a1.81,1.81,0,0,1,1.786-1.786h3.571A1.81,1.81,0,0,1,656,645.429v7.142h7.143a1.814,1.814,0,0,1,1.786,1.786v3.572A1.718,1.718,0,0,1,664.4,659.184Zm-1.213-21.6a21.566,21.566,0,0,0-21.513,0,21.327,21.327,0,0,0-7.8,7.8,21.564,21.564,0,0,0,0,21.512,21.327,21.327,0,0,0,7.8,7.8,21.573,21.573,0,0,0,21.513,0,21.335,21.335,0,0,0,7.8-7.8,21.564,21.564,0,0,0,0-21.512A21.335,21.335,0,0,0,663.185,637.588Z" transform="translate(-631 -634.719)"/>
</svg>
