<svg xmlns="http://www.w3.org/2000/svg" width="17.25" height="17.25" viewBox="0 0 17.25 17.25">
  <defs>
    <style>
      .cls-1 {
        fill: #fff;
        fill-rule: evenodd;
      }
    </style>
  </defs>
  <path id="bottom-left-top-right.svg" class="cls-1" d="M20.25,8.25V3H15a2.1,2.1,0,0,0-.857.344,0.714,0.714,0,0,0-.258.582A0.785,0.785,0,0,0,14,4.513l1.58,1.58L6.127,15.55l-1.58-1.58a0.773,0.773,0,0,0-.613-0.091,0.822,0.822,0,0,0-.582.258A1.717,1.717,0,0,0,3,15v5.25H8.25a1.433,1.433,0,0,0,.885-0.329,0.913,0.913,0,0,0,.242-0.6,0.771,0.771,0,0,0-.09-0.612L7.707,17.13l9.456-9.456,1.581,1.58a0.677,0.677,0,0,0,.585.116,0.833,0.833,0,0,0,.6-0.242,0.862,0.862,0,0,0,.259-0.615Z" transform="translate(-3 -3)"/>
</svg>
