<svg xmlns="http://www.w3.org/2000/svg" width="23" height="23" viewBox="0 0 23 23">
  <defs>
    <style>
      .cls-1 {
        fill: #fff;
        fill-rule: evenodd;
      }
    </style>
  </defs>
  <path id="bottom-left-top-right.svg" class="cls-1" d="M27,11V4H20a2.793,2.793,0,0,0-1.143.459,0.951,0.951,0,0,0-.344.776,1.046,1.046,0,0,0,.157.783l2.107,2.107L8.169,20.733,6.061,18.626A1.031,1.031,0,0,0,5.243,18.5a1.1,1.1,0,0,0-.776.344A2.29,2.29,0,0,0,4,20v7h7a1.91,1.91,0,0,0,1.18-.438,1.218,1.218,0,0,0,.323-0.8,1.028,1.028,0,0,0-.119-0.816L10.276,22.84,22.884,10.232l2.107,2.107a0.9,0.9,0,0,0,.781.155,1.111,1.111,0,0,0,.8-0.323,1.149,1.149,0,0,0,.345-0.82Z" transform="translate(-4 -4)"/>
</svg>
