<svg xmlns="http://www.w3.org/2000/svg" width="24" height="24" viewBox="0 0 24 24">
  <defs>
    <style>
      .cls-1 {
        fill: #fff;
        fill-rule: evenodd;
      }
    </style>
  </defs>
  <path id="move.svg" class="cls-1" d="M23.741,12.941l-3.408,3.308a0.87,0.87,0,0,1-.624.255,0.841,0.841,0,0,1-.6-0.255,0.683,0.683,0,0,1-.335-0.5V13.492H13.492v5.235h2.256a0.778,0.778,0,0,1,.5.373,0.922,0.922,0,0,1,.255.6,0.7,0.7,0,0,1-.255.6l-3.308,3.432a0.766,0.766,0,0,1-1.157,0L8.476,20.3a0.894,0.894,0,0,1,0-1.2,0.781,0.781,0,0,1,.5-0.373h2.256V13.492H5.273v2.256a0.778,0.778,0,0,1-.373.5,0.922,0.922,0,0,1-.6.255,0.7,0.7,0,0,1-.6-0.255L0.269,12.941a0.766,0.766,0,0,1,0-1.157L3.7,8.476a0.829,0.829,0,0,1,.6-0.231,0.83,0.83,0,0,1,.6.231,0.781,0.781,0,0,1,.373.5v2.256h5.962V5.227H8.979a0.792,0.792,0,0,1-.5-0.335,0.721,0.721,0,0,1-.231-0.6,1.1,1.1,0,0,1,.231-0.624l3.308-3.408a0.766,0.766,0,0,1,1.157,0l3.308,3.408a0.87,0.87,0,0,1,.255.624,0.841,0.841,0,0,1-.255.6,0.683,0.683,0,0,1-.5.335H13.492v6.008h5.282V8.979a0.792,0.792,0,0,1,.335-0.5,0.721,0.721,0,0,1,.6-0.231,1.1,1.1,0,0,1,.624.231l3.408,3.308A0.766,0.766,0,0,1,23.741,12.941Z"/>
</svg>
