<svg xmlns="http://www.w3.org/2000/svg" width="32" height="32" viewBox="0 0 32 32">
  <defs>
    <style>
      .cls-1 {
        fill: #fff;
        fill-rule: evenodd;
      }
    </style>
  </defs>
  <path id="move.svg" class="cls-1" d="M31.654,17.254L27.11,21.665a1.16,1.16,0,0,1-.832.339,1.122,1.122,0,0,1-.8-0.339A0.911,0.911,0,0,1,25.031,21V17.989H17.989v6.98H21a1.037,1.037,0,0,1,.668.5,1.23,1.23,0,0,1,.339.8,0.929,0.929,0,0,1-.339.8l-4.411,4.576a1.021,1.021,0,0,1-1.542,0L11.3,27.066a1.192,1.192,0,0,1,0-1.6,1.041,1.041,0,0,1,.671-0.5H14.98v-6.98H7.031V21a1.037,1.037,0,0,1-.5.668,1.23,1.23,0,0,1-.8.339,0.929,0.929,0,0,1-.8-0.339L0.358,17.254a1.021,1.021,0,0,1,0-1.542L4.934,11.3a1.106,1.106,0,0,1,.8-0.309,1.107,1.107,0,0,1,.8.309,1.041,1.041,0,0,1,.5.671V14.98H14.98V6.969H11.972A1.056,1.056,0,0,1,11.3,6.522a0.961,0.961,0,0,1-.309-0.8A1.46,1.46,0,0,1,11.3,4.89l4.411-4.544a1.021,1.021,0,0,1,1.542,0L21.665,4.89A1.16,1.16,0,0,1,22,5.722a1.122,1.122,0,0,1-.339.8A0.911,0.911,0,0,1,21,6.969H17.989V14.98h7.043V11.972a1.056,1.056,0,0,1,.447-0.671,0.961,0.961,0,0,1,.8-0.309,1.46,1.46,0,0,1,.832.309l4.544,4.411A1.021,1.021,0,0,1,31.654,17.254Z"/>
</svg>
