<svg xmlns="http://www.w3.org/2000/svg" width="32" height="32" viewBox="0 0 32 32">
  <defs>
    <style>
      .cls-1 {
        fill: #006464;
        fill-rule: evenodd;
      }
    </style>
  </defs>
  <path id="preloader.svg" class="cls-1" d="M6.434,23.442a2.417,2.417,0,0,0-1.74.694,2.286,2.286,0,0,0,.01,3.342,2.41,2.41,0,0,0,1.731.7,2.418,2.418,0,0,0,1.74-.694,2.307,2.307,0,0,0,0-3.351A2.418,2.418,0,0,0,6.434,23.442Zm9.575,3.814a2.417,2.417,0,0,0-1.74.694,2.307,2.307,0,0,0,0,3.351,2.528,2.528,0,0,0,3.48,0,2.308,2.308,0,0,0,0-3.351A2.418,2.418,0,0,0,16.009,27.257ZM2.473,14.222a2.418,2.418,0,0,0-1.74.694,2.307,2.307,0,0,0,0,3.351,2.418,2.418,0,0,0,1.74.694,2.418,2.418,0,0,0,1.74-.694,2.307,2.307,0,0,0,0-3.351A2.418,2.418,0,0,0,2.473,14.222Zm24.852,9.915a2.528,2.528,0,0,0-3.48,0,2.307,2.307,0,0,0,0,3.351,2.5,2.5,0,0,0,3.471-.009A2.286,2.286,0,0,0,27.325,24.137ZM6.434,4.409a3.021,3.021,0,0,0-2.173.87,2.874,2.874,0,0,0,0,4.184,3.02,3.02,0,0,0,2.173.87,3.02,3.02,0,0,0,2.173-.87,2.874,2.874,0,0,0,0-4.184A3.021,3.021,0,0,0,6.434,4.409Zm23.112,9.813a2.418,2.418,0,0,0-1.74.694,2.308,2.308,0,0,0,0,3.351,2.528,2.528,0,0,0,3.48,0,2.307,2.307,0,0,0,0-3.351A2.418,2.418,0,0,0,29.546,14.222ZM16.009,0a3.631,3.631,0,0,0-2.615,1.037,3.365,3.365,0,0,0-1.077,2.518,3.364,3.364,0,0,0,1.077,2.518,3.816,3.816,0,0,0,5.23,0A3.365,3.365,0,0,0,19.7,3.557a3.366,3.366,0,0,0-1.077-2.518A3.631,3.631,0,0,0,16.009,0ZM28.623,4.446a4.4,4.4,0,0,0-6.086,0,3.933,3.933,0,0,0-1.259,2.925,3.923,3.923,0,0,0,1.259,2.935,4.423,4.423,0,0,0,6.086,0,3.91,3.91,0,0,0,1.269-2.935A3.919,3.919,0,0,0,28.623,4.446Z"/>
</svg>
