<svg xmlns="http://www.w3.org/2000/svg" width="17.25" height="17.25" viewBox="0 0 17.25 17.25">
  <defs>
    <style>
      .cls-1 {
        fill: #fff;
        fill-rule: evenodd;
      }
    </style>
  </defs>
  <path id="top-left-bottom-right.svg" class="cls-1" d="M15,20.25h5.25V15a2.1,2.1,0,0,0-.344-0.857,0.714,0.714,0,0,0-.582-0.258,0.785,0.785,0,0,0-.587.118l-1.58,1.58L7.7,6.127l1.58-1.58a0.773,0.773,0,0,0,.091-0.613A0.822,0.822,0,0,0,9.114,3.35,1.717,1.717,0,0,0,8.25,3H3V8.25a1.432,1.432,0,0,0,.329.885,0.913,0.913,0,0,0,.6.242,0.771,0.771,0,0,0,.612-0.09l1.58-1.58,9.456,9.456L14,18.744a0.677,0.677,0,0,0-.116.585,0.834,0.834,0,0,0,.242.6,0.862,0.862,0,0,0,.615.259Z" transform="translate(-3 -3)"/>
</svg>
