<svg xmlns="http://www.w3.org/2000/svg" width="23" height="23" viewBox="0 0 23 23">
  <defs>
    <style>
      .cls-1 {
        fill: #fff;
        fill-rule: evenodd;
      }
    </style>
  </defs>
  <path id="top-left-bottom-right.svg" class="cls-1" d="M20,27h7V20a2.793,2.793,0,0,0-.459-1.143,0.951,0.951,0,0,0-.776-0.344,1.046,1.046,0,0,0-.783.157l-2.107,2.107L10.267,8.169l2.107-2.107A1.031,1.031,0,0,0,12.5,5.243a1.1,1.1,0,0,0-.344-0.776A2.29,2.29,0,0,0,11,4H4v7a1.91,1.91,0,0,0,.438,1.18,1.217,1.217,0,0,0,.8.323,1.028,1.028,0,0,0,.816-0.119L8.16,10.276,20.768,22.884,18.66,24.991a0.9,0.9,0,0,0-.155.781,1.111,1.111,0,0,0,.323.8,1.149,1.149,0,0,0,.82.345Z" transform="translate(-4 -4)"/>
</svg>
